<svg width="29" height="28" viewBox="0 0 29 28" fill="none" xmlns="http://www.w3.org/2000/svg">
<path d="M3 11.5C3 10.6716 3.67157 10 4.5 10C5.32843 10 6 10.6716 6 11.5V16.5C6 17.3284 5.32843 18 4.5 18C3.67157 18 3 17.3284 3 16.5V11.5Z" fill="url(#paint0_linear_762_718)"/>
<path d="M8 8.5C8 7.67157 8.67157 7 9.5 7C10.3284 7 11 7.67157 11 8.5V19.5C11 20.3284 10.3284 21 9.5 21C8.67157 21 8 20.3284 8 19.5V8.5Z" fill="url(#paint1_linear_762_718)"/>
<path d="M13 5.5C13 4.67157 13.6716 4 14.5 4C15.3284 4 16 4.67157 16 5.5V22.5C16 23.3284 15.3284 24 14.5 24C13.6716 24 13 23.3284 13 22.5V5.5Z" fill="url(#paint2_linear_762_718)"/>
<path d="M18 8.5C18 7.67157 18.6716 7 19.5 7C20.3284 7 21 7.67157 21 8.5V19.5C21 20.3284 20.3284 21 19.5 21C18.6716 21 18 20.3284 18 19.5V8.5Z" fill="url(#paint3_linear_762_718)"/>
<path d="M23 11.5C23 10.6716 23.6716 10 24.5 10C25.3284 10 26 10.6716 26 11.5V16.5C26 17.3284 25.3284 18 24.5 18C23.6716 18 23 17.3284 23 16.5V11.5Z" fill="url(#paint4_linear_762_718)"/>
<defs>
<linearGradient id="paint0_linear_762_718" x1="15" y1="2.5" x2="14.5" y2="25.5" gradientUnits="userSpaceOnUse">
<stop stop-color="#0A9830"/>
<stop offset="1" stop-color="#9BFF9E"/>
<stop offset="1" stop-color="#9BFF9E"/>
</linearGradient>
<linearGradient id="paint1_linear_762_718" x1="15" y1="2.5" x2="14.5" y2="25.5" gradientUnits="userSpaceOnUse">
<stop stop-color="#0A9830"/>
<stop offset="1" stop-color="#9BFF9E"/>
<stop offset="1" stop-color="#9BFF9E"/>
</linearGradient>
<linearGradient id="paint2_linear_762_718" x1="15" y1="2.5" x2="14.5" y2="25.5" gradientUnits="userSpaceOnUse">
<stop stop-color="#0A9830"/>
<stop offset="1" stop-color="#9BFF9E"/>
<stop offset="1" stop-color="#9BFF9E"/>
</linearGradient>
<linearGradient id="paint3_linear_762_718" x1="15" y1="2.5" x2="14.5" y2="25.5" gradientUnits="userSpaceOnUse">
<stop stop-color="#0A9830"/>
<stop offset="1" stop-color="#9BFF9E"/>
<stop offset="1" stop-color="#9BFF9E"/>
</linearGradient>
<linearGradient id="paint4_linear_762_718" x1="15" y1="2.5" x2="14.5" y2="25.5" gradientUnits="userSpaceOnUse">
<stop stop-color="#0A9830"/>
<stop offset="1" stop-color="#9BFF9E"/>
<stop offset="1" stop-color="#9BFF9E"/>
</linearGradient>
</defs>
</svg>
