<svg width="26" height="26" viewBox="0 0 26 26" fill="none" xmlns="http://www.w3.org/2000/svg">
<path d="M13 1.99997C12.2501 1.99997 11.6682 2.31177 11.1406 2.78801C10.657 3.22452 10.1582 3.85652 9.57274 4.5984L9.53272 4.64911C8.33325 6.16886 6.96514 8.04854 5.89323 9.93146C4.83839 11.7844 4 13.7589 4 15.4356C4 20.664 7.97714 25 13 25C18.0229 25 22 20.664 22 15.4356C22 13.7589 21.1616 11.7844 20.1068 9.93146C19.0349 8.04854 17.6668 6.16886 16.4673 4.64911L16.4273 4.59841C15.8418 3.85652 15.3431 3.22452 14.8594 2.78801C14.3318 2.31177 13.7499 1.99997 13 1.99997Z" fill="#4B5563"/>
</svg>
