<svg width="24" height="24" viewBox="0 0 24 24" fill="none" xmlns="http://www.w3.org/2000/svg">
<path d="M12.5195 4.02344C11.3275 3.9637 10.0735 4.18176 8.82227 4.74219C7.02027 5.54919 5.55214 7.01737 4.74414 8.81837C1.75214 15.4924 8.50569 22.2479 15.1797 19.2559C16.9807 18.4489 18.4508 16.9807 19.2578 15.1797C21.6872 9.75788 17.6849 4.28234 12.5195 4.02344ZM20.9668 4.66797C20.7847 4.673 20.6075 4.72765 20.4542 4.82603C20.3009 4.9244 20.1774 5.06276 20.097 5.22618C20.0166 5.38961 19.9824 5.57188 19.998 5.75334C20.0136 5.9348 20.0784 6.10856 20.1855 6.25587C21.3293 7.88154 22 9.85719 22 12C22 14.142 21.3305 16.1163 20.1875 17.7422C20.0349 17.9592 19.9749 18.228 20.0205 18.4893C20.0661 18.7507 20.2136 18.9832 20.4307 19.1357C20.6477 19.2883 20.9165 19.3484 21.1778 19.3028C21.4391 19.2572 21.6717 19.1096 21.8242 18.8926C23.1952 16.9425 24 14.56 24 12C24 9.43882 23.1945 7.0558 21.8223 5.10547C21.7279 4.96659 21.6 4.85372 21.4505 4.77726C21.301 4.7008 21.1347 4.66322 20.9668 4.66797ZM3 4.66993C2.83773 4.67067 2.67808 4.71089 2.53483 4.78711C2.39157 4.86333 2.26902 4.97327 2.17773 5.10743C0.806805 7.05748 0 9.43973 0 12C0 14.5666 0.809819 16.9557 2.1875 18.9082C2.26184 19.0189 2.35757 19.1137 2.46907 19.1868C2.58056 19.26 2.70556 19.3102 2.83672 19.3343C2.96788 19.3584 3.10254 19.3561 3.23279 19.3275C3.36303 19.2988 3.48623 19.2444 3.59513 19.1674C3.70403 19.0904 3.79643 18.9924 3.8669 18.8792C3.93737 18.766 3.98448 18.6398 4.00546 18.5081C4.02644 18.3764 4.02087 18.2418 3.98907 18.1123C3.95728 17.9828 3.8999 17.8609 3.82031 17.7539C2.67199 16.1264 2 14.1474 2 12C2 9.85828 2.66943 7.88376 3.8125 6.25782C3.92107 6.10837 3.98612 5.93177 4.00045 5.74761C4.01478 5.56344 3.97783 5.3789 3.89368 5.21446C3.80954 5.05002 3.6815 4.91209 3.52375 4.81597C3.366 4.71986 3.18472 4.66931 3 4.66993ZM12 7.00001C12.552 7.00001 13 7.44801 13 8.00001V11C13 11.552 12.552 12 12 12C11.448 12 11 11.552 11 11V8.00001C11 7.44801 11.448 7.00001 12 7.00001ZM12 14C12.552 14 13 14.448 13 15C13 15.552 12.552 16 12 16C11.448 16 11 15.552 11 15C11 14.448 11.448 14 12 14Z" fill="#FF5A1F"/>
</svg>
