<svg width="26" height="26" viewBox="0 0 26 26" fill="none" xmlns="http://www.w3.org/2000/svg">
<circle cx="13" cy="13" r="13" fill="#0A9830" fill-opacity="0.2"/>
<path d="M7.66667 12.8171C7.66667 12.564 7.85477 12.3548 8.09882 12.3217L8.16667 12.3171H18.1667C18.4428 12.3171 18.6667 12.541 18.6667 12.8171C18.6667 13.0703 18.4786 13.2795 18.2345 13.3126L18.1667 13.3171H8.16667C7.89053 13.3171 7.66667 13.0933 7.66667 12.8171Z" fill="#0A9830"/>
<path d="M13.7807 9.15518C13.585 8.96034 13.5843 8.64376 13.7792 8.44808C13.9563 8.27018 14.234 8.25345 14.4301 8.39826L14.4863 8.44655L18.5196 12.4626C18.698 12.6402 18.7142 12.919 18.5683 13.115L18.5196 13.1712L14.4863 17.1878C14.2906 17.3827 13.974 17.382 13.7792 17.1864C13.602 17.0085 13.5865 16.7307 13.7321 16.5352L13.7806 16.4792L17.458 12.8167L13.7807 9.15518Z" fill="#0A9830"/>
</svg>
