<svg width="27" height="26" viewBox="0 0 27 26" fill="none" xmlns="http://www.w3.org/2000/svg">
<path d="M7.31814 5.37931C4.42909 7.47833 2.98456 8.52784 2.41722 10.0781C2.3717 10.2025 2.33077 10.3285 2.29449 10.4558C1.84226 12.0435 2.39402 13.7416 3.49753 17.1379C4.60105 20.5342 5.15281 22.2323 6.45189 23.251C6.5561 23.3327 6.66327 23.4106 6.77319 23.4844C7.2354 23.795 7.74486 24.0008 8.35417 24.1372V20.3879C8.35417 17.546 10.658 15.2421 13.5 15.2421C16.342 15.2421 18.6458 17.546 18.6458 20.3879V24.1372C19.2551 24.0008 19.7646 23.795 20.2268 23.4844C20.3367 23.4106 20.4439 23.3327 20.5481 23.251C21.8472 22.2323 22.399 20.5342 23.5025 17.1379C24.606 13.7416 25.1578 12.0435 24.7055 10.4558C24.6692 10.3285 24.6283 10.2025 24.5828 10.0781C24.0155 8.52784 22.5709 7.47834 19.6819 5.37933C16.7928 3.28031 15.3483 2.23079 13.6986 2.17027C13.5662 2.16541 13.4338 2.16541 13.3014 2.17027C11.6517 2.23079 10.2072 3.2803 7.31814 5.37931Z" fill="#4B5563"/>
<path d="M17.0208 24.3459V20.3879C17.0208 18.4434 15.4445 16.8671 13.5 16.8671C11.5555 16.8671 9.97917 18.4434 9.97917 20.3879V24.3459C10.9249 24.4051 12.0691 24.4051 13.5 24.4051C14.9309 24.4051 16.0751 24.4051 17.0208 24.3459Z" fill="#4B5563"/>
</svg>
