<svg width="20" height="20" viewBox="0 0 20 20" fill="none" xmlns="http://www.w3.org/2000/svg">
<path fill-rule="evenodd" clip-rule="evenodd" d="M9.72596 3.36257C9.49694 4.90712 9.2092 7.3151 10.766 10.0115C12.3227 12.7079 14.552 13.6627 16.0041 14.2367C16.0543 14.2565 16.1044 14.2762 16.1541 14.2957C16.4546 14.4139 16.7438 14.5276 16.9683 14.6391C17.1015 14.7053 17.2434 14.7856 17.3664 14.8861C17.4874 14.9848 17.6357 15.14 17.7057 15.3671C17.8648 15.8831 17.5117 16.2749 17.2953 16.4717C17.0381 16.7056 16.6493 16.9589 16.1472 17.2488C11.8625 19.7226 6.38371 18.2546 3.90994 13.9698C1.43616 9.68514 2.90421 4.20631 7.18891 1.73254C7.69099 1.44266 8.10479 1.2326 8.4359 1.12684C8.71454 1.03785 9.23041 0.927978 9.59776 1.32375C9.75945 1.49795 9.81965 1.70395 9.84471 1.85805C9.87019 2.01479 9.86879 2.17788 9.85952 2.32633C9.84389 2.57653 9.79775 2.88385 9.74981 3.20312C9.74187 3.25601 9.73387 3.30923 9.72596 3.36257ZM8.59856 2.40243C8.40951 2.48604 8.15437 2.61851 7.81391 2.81507C4.12708 4.94366 2.86387 9.65801 4.99247 13.3448C7.12107 17.0317 11.8354 18.2949 15.5222 16.1663C15.8627 15.9697 16.105 15.815 16.2719 15.6931C16.1206 15.626 15.9341 15.5526 15.7036 15.4618C15.6528 15.4418 15.5998 15.421 15.5447 15.3992C14.0287 14.8 11.46 13.7136 9.68344 10.6365C7.90688 7.55942 8.25038 4.7917 8.48948 3.17922C8.49819 3.12054 8.5066 3.06427 8.51468 3.01028C8.55133 2.76522 8.58098 2.56698 8.59856 2.40243ZM8.93188 2.28999C8.9315 2.29045 8.92582 2.29139 8.91598 2.29144C8.92733 2.28956 8.93225 2.28953 8.93188 2.28999ZM16.5268 15.4737C16.5317 15.4652 16.5354 15.4607 16.536 15.4606C16.5365 15.4605 16.5341 15.4648 16.5268 15.4737Z" fill="#0A9830"/>
</svg>
