<svg width="20" height="20" viewBox="0 0 20 20" fill="none" xmlns="http://www.w3.org/2000/svg">
<path fill-rule="evenodd" clip-rule="evenodd" d="M12.3173 16.4171C14.2421 13.9626 16.6667 10.3966 16.6667 8.00725C16.6667 4.04521 13.6819 0.833344 10 0.833344C6.3181 0.833344 3.33333 4.04521 3.33333 8.00725C3.33333 10.3966 5.75788 13.9626 7.68267 16.4171C8.68687 17.6976 9.18897 18.3379 10 18.3379C10.811 18.3379 11.3131 17.6976 12.3173 16.4171ZM10 10.8333C8.61929 10.8333 7.5 9.71405 7.5 8.33334C7.5 6.95263 8.61929 5.83334 10 5.83334C11.3807 5.83334 12.5 6.95263 12.5 8.33334C12.5 9.71405 11.3807 10.8333 10 10.8333Z" fill="#374151"/>
</svg>
