<svg width="20" height="20" viewBox="0 0 20 20" fill="none" xmlns="http://www.w3.org/2000/svg">
<g clip-path="url(#clip0_193_386)">
<path d="M10.625 0.833333C10.625 0.488155 10.3452 0.208333 9.99998 0.208333C9.6548 0.208333 9.37498 0.488155 9.37498 0.833333V2.5C9.37498 2.84518 9.6548 3.125 9.99998 3.125C10.3452 3.125 10.625 2.84518 10.625 2.5V0.833333Z" fill="#0A9830"/>
<path d="M3.96011 3.07625C3.71603 2.83217 3.3203 2.83217 3.07623 3.07625C2.83215 3.32032 2.83215 3.71605 3.07623 3.96013L4.25474 5.13864C4.49882 5.38272 4.89454 5.38272 5.13862 5.13864C5.3827 4.89456 5.3827 4.49884 5.13862 4.25476L3.96011 3.07625Z" fill="#0A9830"/>
<path d="M16.9237 3.96013C17.1678 3.71605 17.1678 3.32032 16.9237 3.07625C16.6797 2.83217 16.2839 2.83217 16.0399 3.07625L14.8613 4.25476C14.6173 4.49883 14.6173 4.89456 14.8613 5.13864C15.1054 5.38272 15.5011 5.38272 15.7452 5.13864L16.9237 3.96013Z" fill="#0A9830"/>
<path fill-rule="evenodd" clip-rule="evenodd" d="M9.99998 4.375C6.89338 4.375 4.37498 6.8934 4.37498 10C4.37498 13.1066 6.89338 15.625 9.99998 15.625C13.1066 15.625 15.625 13.1066 15.625 10C15.625 6.8934 13.1066 4.375 9.99998 4.375ZM5.62498 10C5.62498 7.58375 7.58373 5.625 9.99998 5.625C12.4162 5.625 14.375 7.58375 14.375 10C14.375 12.4162 12.4162 14.375 9.99998 14.375C7.58373 14.375 5.62498 12.4162 5.62498 10Z" fill="#0A9830"/>
<path d="M0.833313 9.375C0.488135 9.375 0.208313 9.65482 0.208313 10C0.208313 10.3452 0.488135 10.625 0.833313 10.625H2.49998C2.84516 10.625 3.12498 10.3452 3.12498 10C3.12498 9.65482 2.84516 9.375 2.49998 9.375H0.833313Z" fill="#0A9830"/>
<path d="M17.5 9.375C17.1548 9.375 16.875 9.65482 16.875 10C16.875 10.3452 17.1548 10.625 17.5 10.625H19.1666C19.5118 10.625 19.7916 10.3452 19.7916 10C19.7916 9.65482 19.5118 9.375 19.1666 9.375H17.5Z" fill="#0A9830"/>
<path d="M5.13862 15.7452C5.3827 15.5012 5.3827 15.1054 5.13862 14.8614C4.89454 14.6173 4.49882 14.6173 4.25474 14.8614L3.07623 16.0399C2.83215 16.284 2.83215 16.6797 3.07623 16.9238C3.3203 17.1678 3.71603 17.1678 3.96011 16.9238L5.13862 15.7452Z" fill="#0A9830"/>
<path d="M15.7452 14.8614C15.5011 14.6173 15.1054 14.6173 14.8613 14.8614C14.6173 15.1054 14.6173 15.5012 14.8613 15.7452L16.0399 16.9238C16.2839 17.1678 16.6797 17.1678 16.9237 16.9238C17.1678 16.6797 17.1678 16.2839 16.9237 16.0399L15.7452 14.8614Z" fill="#0A9830"/>
<path d="M10.625 17.5C10.625 17.1548 10.3452 16.875 9.99998 16.875C9.6548 16.875 9.37498 17.1548 9.37498 17.5V19.1667C9.37498 19.5118 9.6548 19.7917 9.99998 19.7917C10.3452 19.7917 10.625 19.5118 10.625 19.1667V17.5Z" fill="#0A9830"/>
</g>
<defs>
<clipPath id="clip0_193_386">
<rect width="20" height="20" fill="white"/>
</clipPath>
</defs>
</svg>
