<svg width="26" height="26" viewBox="0 0 26 26" fill="none" xmlns="http://www.w3.org/2000/svg">
<path d="M15.2387 10.4079C15.4613 10.3162 15.6839 10.5388 15.5922 10.7614L14.3981 13.6614C14.2606 13.9953 13.9955 14.2604 13.6616 14.3979L10.7616 15.592C10.539 15.6837 10.3164 15.4611 10.4081 15.2385L11.6022 12.3385C11.7396 12.0046 12.0048 11.7395 12.3387 11.602L15.2387 10.4079Z" fill="#4B5563"/>
<path fill-rule="evenodd" clip-rule="evenodd" d="M13.3091 1.1164C13.1033 1.10618 12.8971 1.10618 12.6913 1.1164C11.8968 1.15584 11.1654 1.38669 10.35 1.76507C9.55624 2.13343 8.63385 2.66598 7.46692 3.33971L7.40083 3.37787C6.23389 4.0516 5.3115 4.58413 4.59559 5.08739C3.86022 5.60434 3.29458 6.12235 2.86319 6.79066C2.75144 6.96378 2.64835 7.14234 2.5543 7.32567C2.19122 8.03343 2.02543 8.78229 1.94542 9.67762C1.86754 10.5492 1.86755 11.6143 1.86755 12.9618V13.0381C1.86755 14.3856 1.86754 15.4506 1.94542 16.3223C2.02543 17.2176 2.19122 17.9664 2.5543 18.6742C2.64835 18.8575 2.75144 19.0361 2.86319 19.2092C3.29458 19.8775 3.86022 20.3955 4.59559 20.9125C5.31145 21.4157 6.23377 21.9482 7.4006 22.6219L7.4669 22.6602C8.63384 23.3339 9.55623 23.8664 10.35 24.2348C11.1654 24.6132 11.8968 24.844 12.6913 24.8835C12.8971 24.8937 13.1033 24.8937 13.3091 24.8835C14.1036 24.844 14.835 24.6132 15.6504 24.2348C16.4441 23.8664 17.3665 23.3339 18.5335 22.6602L18.5996 22.622C19.7665 21.9483 20.6889 21.4157 21.4048 20.9125C22.1402 20.3955 22.7058 19.8775 23.1372 19.2092C23.2489 19.0361 23.352 18.8575 23.4461 18.6742C23.8092 17.9664 23.975 17.2176 24.055 16.3223C24.1328 15.4507 24.1328 14.3856 24.1328 13.0382V12.9618C24.1328 11.6144 24.1328 10.5492 24.055 9.67762C23.975 8.78229 23.8092 8.03343 23.4461 7.32567C23.352 7.14234 23.2489 6.96378 23.1372 6.79066C22.7058 6.12235 22.1402 5.60434 21.4048 5.08739C20.6889 4.58413 19.7665 4.0516 18.5996 3.37787L18.5335 3.33971C17.3665 2.66598 16.4441 2.13343 15.6504 1.76507C14.835 1.38669 14.1036 1.15584 13.3091 1.1164ZM17.0948 11.3801C17.7365 9.82189 16.1782 8.26363 14.62 8.90527L11.72 10.0994C10.9854 10.4018 10.402 10.9852 10.0996 11.7198L8.90546 14.6198C8.26383 16.178 9.82207 17.7363 11.3803 17.0946L14.2803 15.9005C15.0149 15.5981 15.5982 15.0147 15.9007 14.2801L17.0948 11.3801Z" fill="#4B5563"/>
</svg>
