<svg width="24" height="24" viewBox="0 0 24 24" fill="none" xmlns="http://www.w3.org/2000/svg">
<path fill-rule="evenodd" clip-rule="evenodd" d="M12 12.25C10.4812 12.25 9.24997 13.4812 9.24997 15C9.24997 16.5188 10.4812 17.75 12 17.75C13.5188 17.75 14.75 16.5188 14.75 15C14.75 13.4812 13.5188 12.25 12 12.25ZM10.75 15C10.75 14.3096 11.3096 13.75 12 13.75C12.6903 13.75 13.25 14.3096 13.25 15C13.25 15.6904 12.6903 16.25 12 16.25C11.3096 16.25 10.75 15.6904 10.75 15Z" fill="#6B7280"/>
<path fill-rule="evenodd" clip-rule="evenodd" d="M12 1.25C8.82434 1.25 6.24997 3.82436 6.24997 7V7.52281L6.22312 7.53142C4.47261 8.1002 3.10017 9.47263 2.5314 11.2232C2.24952 12.0907 2.24969 13.1319 2.24996 14.8382V15.1618C2.24969 16.8681 2.24952 17.9093 2.5314 18.7768C3.10017 20.5274 4.47261 21.8998 6.22312 22.4686C7.09064 22.7505 8.13185 22.7503 9.83811 22.75H14.1618C15.8681 22.7503 16.9093 22.7505 17.7768 22.4686C19.5273 21.8998 20.8998 20.5274 21.4685 18.7768C21.7504 17.9093 21.7503 16.8681 21.75 15.1619V14.8381C21.7503 13.1319 21.7504 12.0907 21.4685 11.2232C20.8998 9.47263 19.5273 8.1002 17.7768 7.53142L17.75 7.52281V7C17.75 3.82436 15.1756 1.25 12 1.25ZM9.91599 7.25C9.0368 7.24997 8.33508 7.24994 7.74997 7.28306V7C7.74997 4.65279 9.65276 2.75 12 2.75C14.3472 2.75 16.25 4.65279 16.25 7V7.28306C15.6649 7.24994 14.9632 7.24997 14.084 7.25H9.91599ZM7.12457 8.85329C7.72217 8.75262 8.52812 8.75 9.99997 8.75H14C15.4718 8.75 16.2778 8.75262 16.8754 8.85329C17.0406 8.88113 17.1831 8.91571 17.3133 8.95801C18.6072 9.37841 19.6216 10.3928 20.042 11.6867C20.2407 12.2984 20.25 13.0803 20.25 15C20.25 16.9197 20.2407 17.7016 20.042 18.3133C19.6216 19.6072 18.6072 20.6216 17.3133 21.042C16.7016 21.2407 15.9196 21.25 14 21.25H9.99997C8.08032 21.25 7.29836 21.2407 6.68665 21.042C5.39279 20.6216 4.37838 19.6072 3.95798 18.3133C3.75923 17.7016 3.74997 16.9197 3.74997 15C3.74997 13.0803 3.75923 12.2984 3.95798 11.6867C4.37838 10.3928 5.39279 9.37841 6.68665 8.95801C6.81682 8.91571 6.95932 8.88113 7.12457 8.85329Z" fill="#6B7280"/>
</svg>
