<svg width="26" height="26" viewBox="0 0 26 26" fill="none" xmlns="http://www.w3.org/2000/svg">
<path d="M10.8332 2.97916L12.1873 2.97916V6.82339C11.0751 6.96841 10.0547 7.40698 9.20726 8.05813L5.93119 4.78206L6.88873 3.82452C7.20603 3.50722 7.20603 2.99277 6.88873 2.67547C6.57143 2.35817 6.05698 2.35817 5.73968 2.67547L2.67555 5.7396C2.35825 6.0569 2.35825 6.57135 2.67555 6.88865C2.99285 7.20595 3.5073 7.20595 3.8246 6.88865L4.78214 5.93111L8.05818 9.20715C7.40693 10.0546 6.96827 11.0751 6.82324 12.1875H2.979L2.979 10.8333C2.979 10.3846 2.61524 10.0208 2.1665 10.0208C1.71777 10.0208 1.354 10.3846 1.354 10.8333V15.1667C1.354 15.6154 1.71777 15.9792 2.1665 15.9792C2.61523 15.9792 2.979 15.6154 2.979 15.1667L2.979 13.8125H6.82324C6.96829 14.925 7.40705 15.9456 8.05847 16.7932L4.77665 20.1404L3.8246 19.1883C3.5073 18.871 2.99285 18.871 2.67555 19.1883C2.35825 19.5056 2.35825 20.0201 2.67555 20.3374L5.73968 23.4015C6.05698 23.7188 6.57143 23.7188 6.88873 23.4015C7.20603 23.0842 7.20603 22.5698 6.88873 22.2525L5.92575 21.2895L9.20769 17.9422C10.055 18.5931 11.0753 19.0316 12.1873 19.1766V23.0208H10.8332C10.3844 23.0208 10.0207 23.3846 10.0207 23.8333C10.0207 24.2821 10.3844 24.6458 10.8332 24.6458H15.1665C15.6152 24.6458 15.979 24.2821 15.979 23.8333C15.979 23.3846 15.6152 23.0208 15.1665 23.0208H13.8123V19.1766C14.9245 19.0316 15.945 18.593 16.7924 17.9419L20.1455 21.2951L19.1882 22.2525C18.8709 22.5698 18.8709 23.0842 19.1882 23.4015C19.5055 23.7188 20.0199 23.7188 20.3372 23.4015L23.4014 20.3374C23.7187 20.0201 23.7187 19.5056 23.4014 19.1883C23.084 18.871 22.5696 18.871 22.2523 19.1883L21.2946 20.1461L17.9415 16.7928C18.5927 15.9454 19.0314 14.9249 19.1764 13.8125H23.0207V15.1667C23.0207 15.6154 23.3844 15.9792 23.8332 15.9792C24.2819 15.9792 24.6457 15.6154 24.6457 15.1667V10.8333C24.6457 10.3846 24.2819 10.0208 23.8332 10.0208C23.3844 10.0208 23.0207 10.3846 23.0207 10.8333V12.1875H19.1764C19.0314 11.0754 18.593 10.0552 17.942 9.20782L21.2892 5.92556L22.2523 6.88865C22.5696 7.20595 23.084 7.20595 23.4014 6.88865C23.7187 6.57135 23.7187 6.0569 23.4014 5.7396L21.8784 4.21664L21.875 4.21317L21.8601 4.19831L20.3372 2.67547C20.0199 2.35817 19.5055 2.35817 19.1882 2.67547C18.8709 2.99277 18.8709 3.50722 19.1882 3.82452L20.1401 4.77645L16.793 8.0586C15.9455 7.40719 14.9248 6.96845 13.8123 6.82339V2.97916L15.1665 2.97916C15.6152 2.97916 15.979 2.61539 15.979 2.16666C15.979 1.71793 15.6152 1.35416 15.1665 1.35416H10.8332C10.3844 1.35416 10.0207 1.71793 10.0207 2.16666C10.0207 2.61539 10.3844 2.97916 10.8332 2.97916Z" fill="#4B5563"/>
</svg>
