<svg width="20" height="20" viewBox="0 0 20 20" fill="none" xmlns="http://www.w3.org/2000/svg">
<path d="M8.77331 5.38943C8.52815 5.14645 8.13242 5.14821 7.88943 5.39338C7.64645 5.63854 7.64821 6.03427 7.89338 6.27725L9.36252 7.73334C9.95876 8.32429 10.3678 8.73099 10.6445 9.0756C10.9133 9.41034 11.0056 9.62536 11.0301 9.81792C11.0455 9.93884 11.0455 10.0612 11.0301 10.1821C11.0056 10.3747 10.9133 10.5897 10.6445 10.9244C10.3678 11.269 9.95876 11.6757 9.36252 12.2667L7.89338 13.7228C7.64821 13.9658 7.64645 14.3615 7.88943 14.6066C8.13242 14.8518 8.52815 14.8536 8.77331 14.6106L10.2689 13.1283C10.8322 12.57 11.2926 12.1137 11.6191 11.7071C11.9587 11.2844 12.2044 10.8552 12.2701 10.3401C12.2989 10.1143 12.2989 9.88573 12.2701 9.65987C12.2044 9.14478 11.9587 8.71566 11.6191 8.29289C11.2926 7.88633 10.8322 7.43004 10.2689 6.87175L8.77331 5.38943Z" fill="#0A9830"/>
</svg>
