<svg width="33" height="32" viewBox="0 0 33 32" fill="none" xmlns="http://www.w3.org/2000/svg">
<path opacity="0.4" fill-rule="evenodd" clip-rule="evenodd" d="M12.7516 4.99629C12.7516 4.44585 12.2969 4 11.7369 4H11.7356L9.56359 4.00131C6.64226 4.00392 4.26492 6.33775 4.26492 9.20372V11.6827C4.26492 12.2318 4.71959 12.679 5.27959 12.679C5.83959 12.679 6.29559 12.2318 6.29559 11.6827V9.20372C6.29559 7.43472 7.76226 5.99519 9.56492 5.99258L11.7369 5.99127C12.2983 5.99127 12.7516 5.54543 12.7516 4.99629ZM23.4248 4.00039H21.3008C20.7408 4.00039 20.2861 4.44624 20.2861 4.99668C20.2861 5.54582 20.7408 5.99036 21.3008 5.99036H23.4248C25.2341 5.99036 26.7061 7.4338 26.7061 9.20803V11.6831C26.7061 12.2322 27.1608 12.6794 27.7208 12.6794C28.2821 12.6794 28.7355 12.2322 28.7355 11.6831V9.20803C28.7355 6.33553 26.3541 4.00039 23.4248 4.00039ZM12.818 8.99021H20.1833C20.99 8.99021 21.7647 9.30793 22.3287 9.87406C22.8967 10.4454 23.2113 11.2129 23.21 12.0118V13.6723C23.2033 13.8671 23.0447 14.0253 22.846 14.0305H10.1527C9.95532 14.024 9.79666 13.8658 9.79266 13.6723V12.0118C9.77799 10.3578 11.1327 9.00721 12.818 8.99021Z" fill="white"/>
<path d="M30.152 16.0549H2.84933C2.28933 16.0549 1.83333 16.5008 1.83333 17.0512C1.83333 17.6004 2.28933 18.0449 2.84933 18.0449H4.26399V22.7962C4.26399 25.6622 6.64266 27.996 9.56399 27.9986L11.736 28C12.2973 28 12.7507 27.5541 12.752 27.0037C12.752 26.4545 12.2973 26.0087 11.7373 26.0087L9.56666 26.0074C7.76266 26.0048 6.29466 24.5652 6.29466 22.7962V18.0449H9.79199V19.3667C9.77866 21.0207 11.132 22.3726 12.8173 22.3883H20.1827C21.8693 22.3726 23.2227 21.0207 23.2093 19.3667V18.0449H26.7067V22.791C26.7067 24.5665 25.2347 26.0087 23.4253 26.0087H21.3013C20.74 26.0087 20.2853 26.4545 20.2853 27.0037C20.2853 27.5541 20.74 28 21.3013 28H23.4253C26.3533 28 28.736 25.6648 28.736 22.791V18.0449H30.152C30.712 18.0449 31.1667 17.6004 31.1667 17.0512C31.1667 16.5008 30.712 16.0549 30.152 16.0549Z" fill="white"/>
</svg>
