<svg width="60" height="60" viewBox="0 0 60 60" fill="none" xmlns="http://www.w3.org/2000/svg">
<path opacity="0.4" fill-rule="evenodd" clip-rule="evenodd" d="M22.9717 9.36804C22.9717 8.33596 22.1192 7.5 21.0692 7.5H21.0667L16.9942 7.50245C11.5167 7.50735 7.0592 11.8833 7.0592 17.257V21.905C7.0592 22.9347 7.9117 23.7731 8.9617 23.7731C10.0117 23.7731 10.8667 22.9347 10.8667 21.905V17.257C10.8667 13.9401 13.6167 11.241 16.9967 11.2361L21.0692 11.2336C22.1217 11.2336 22.9717 10.3977 22.9717 9.36804ZM42.984 7.50074H39.0015C37.9515 7.50074 37.099 8.3367 37.099 9.36878C37.099 10.3984 37.9515 11.2319 39.0015 11.2319H42.984C46.3765 11.2319 49.1365 13.9384 49.1365 17.2651V21.9058C49.1365 22.9354 49.989 23.7738 51.039 23.7738C52.0915 23.7738 52.9415 22.9354 52.9415 21.9058V17.2651C52.9415 11.8791 48.4765 7.50074 42.984 7.50074ZM23.0962 16.8566H36.9062C38.4187 16.8566 39.8712 17.4524 40.9287 18.5139C41.9937 19.5852 42.5837 21.0242 42.5812 22.5221V25.6355C42.5687 26.0007 42.2712 26.2974 41.8987 26.3072H18.0987C17.7287 26.2949 17.4312 25.9983 17.4237 25.6355V22.5221C17.3962 19.4209 19.9362 16.8885 23.0962 16.8566Z" fill="white"/>
<path d="M55.5975 30.103H4.405C3.355 30.103 2.5 30.939 2.5 31.9711C2.5 33.0007 3.355 33.8342 4.405 33.8342H7.0575V42.743C7.0575 48.1167 11.5175 52.4926 16.995 52.4975L21.0675 52.4999C22.12 52.4999 22.97 51.664 22.9725 50.6319C22.9725 49.6023 22.12 48.7663 21.07 48.7663L17 48.7639C13.6175 48.759 10.865 46.0598 10.865 42.743V33.8342H17.4225V36.3127C17.3975 39.4138 19.935 41.9487 23.095 41.9781H36.905C40.0675 41.9487 42.605 39.4138 42.58 36.3127V33.8342H49.1375V42.7332C49.1375 46.0623 46.3775 48.7663 42.985 48.7663H39.0025C37.95 48.7663 37.0975 49.6023 37.0975 50.6319C37.0975 51.664 37.95 52.4999 39.0025 52.4999H42.985C48.475 52.4999 52.9425 48.1216 52.9425 42.7332V33.8342H55.5975C56.6475 33.8342 57.5 33.0007 57.5 31.9711C57.5 30.939 56.6475 30.103 55.5975 30.103Z" fill="white"/>
</svg>
