<svg width="20" height="20" viewBox="0 0 20 20" fill="none" xmlns="http://www.w3.org/2000/svg">
<path d="M10.625 0.833328C10.625 0.48815 10.3452 0.208328 10 0.208328C9.65484 0.208328 9.37502 0.48815 9.37502 0.833328V2.49999C9.37502 2.84517 9.65484 3.12499 10 3.12499C10.3452 3.12499 10.625 2.84517 10.625 2.49999V0.833328Z" fill="#0A9830"/>
<path d="M3.96015 2.24292C3.71607 1.99884 3.32034 1.99884 3.07627 2.24292C2.83219 2.487 2.83219 2.88272 3.07627 3.1268L4.25478 4.30531C4.49886 4.54939 4.89458 4.54939 5.13866 4.30531C5.38274 4.06124 5.38274 3.66551 5.13866 3.42143L3.96015 2.24292Z" fill="#0A9830"/>
<path d="M16.9238 3.1268C17.1679 2.88272 17.1679 2.487 16.9238 2.24292C16.6797 1.99884 16.284 1.99884 16.0399 2.24292L14.8614 3.42143C14.6173 3.66551 14.6173 4.06124 14.8614 4.30531C15.1055 4.54939 15.5012 4.54939 15.7453 4.30531L16.9238 3.1268Z" fill="#0A9830"/>
<path d="M6.45835 9.16666C6.45835 7.21065 8.04401 5.62499 10 5.62499C11.956 5.62499 13.5417 7.21065 13.5417 9.16666C13.5417 9.51184 13.8215 9.79166 14.1667 9.79166C14.5119 9.79166 14.7917 9.51184 14.7917 9.16666C14.7917 6.5203 12.6464 4.37499 10 4.37499C7.35366 4.37499 5.20835 6.5203 5.20835 9.16666C5.20835 9.51184 5.48818 9.79166 5.83335 9.79166C6.17853 9.79166 6.45835 9.51184 6.45835 9.16666Z" fill="#0A9830"/>
<path d="M1.66669 8.54166C1.32151 8.54166 1.04169 8.82148 1.04169 9.16666C1.04169 9.51184 1.32151 9.79166 1.66669 9.79166H3.33335C3.67853 9.79166 3.95835 9.51184 3.95835 9.16666C3.95835 8.82148 3.67853 8.54166 3.33335 8.54166H1.66669Z" fill="#0A9830"/>
<path d="M16.6667 8.54166C16.3215 8.54166 16.0417 8.82148 16.0417 9.16666C16.0417 9.51184 16.3215 9.79166 16.6667 9.79166H18.3334C18.6785 9.79166 18.9584 9.51184 18.9584 9.16666C18.9584 8.82148 18.6785 8.54166 18.3334 8.54166H16.6667Z" fill="#0A9830"/>
<path d="M3.33335 11.0417C2.98818 11.0417 2.70835 11.3215 2.70835 11.6667C2.70835 12.0118 2.98818 12.2917 3.33335 12.2917H16.6667C17.0119 12.2917 17.2917 12.0118 17.2917 11.6667C17.2917 11.3215 17.0119 11.0417 16.6667 11.0417H3.33335Z" fill="#0A9830"/>
<path d="M5.83335 14.375C5.48818 14.375 5.20835 14.6548 5.20835 15C5.20835 15.3452 5.48818 15.625 5.83335 15.625H14.1667C14.5119 15.625 14.7917 15.3452 14.7917 15C14.7917 14.6548 14.5119 14.375 14.1667 14.375H5.83335Z" fill="#0A9830"/>
<path d="M8.33335 17.7083C7.98818 17.7083 7.70835 17.9881 7.70835 18.3333C7.70835 18.6785 7.98818 18.9583 8.33335 18.9583H11.6667C12.0119 18.9583 12.2917 18.6785 12.2917 18.3333C12.2917 17.9881 12.0119 17.7083 11.6667 17.7083H8.33335Z" fill="#0A9830"/>
</svg>
