<svg width="20" height="20" viewBox="0 0 20 20" fill="none" xmlns="http://www.w3.org/2000/svg">
<path d="M11.5485 2.34083C10.7027 1.45666 9.29766 1.45666 8.45183 2.34083C6.48266 4.39916 3.3335 8.22666 3.3335 11.6667C3.3335 15.3483 6.3185 18.3333 10.0002 18.3333C13.6818 18.3333 16.6668 15.3483 16.6668 11.6667C16.6668 8.22666 13.5177 4.39916 11.5485 2.34083ZM10.0002 15.8333C7.70266 15.8333 5.8335 13.9642 5.8335 11.6667C5.8335 10.9767 6.39266 10.4167 7.0835 10.4167C7.77433 10.4167 8.3335 10.9767 8.3335 11.6667C8.3335 12.5858 9.081 13.3333 10.0002 13.3333C10.691 13.3333 11.2502 13.8933 11.2502 14.5833C11.2502 15.2733 10.691 15.8333 10.0002 15.8333Z" fill="#374151"/>
<path opacity="0.35" d="M10 16.6667C12.7614 16.6667 15 14.4281 15 11.6667C15 8.90523 12.7614 6.66666 10 6.66666C7.23858 6.66666 5 8.90523 5 11.6667C5 14.4281 7.23858 16.6667 10 16.6667Z" fill="#374151"/>
</svg>
